<svg xmlns="http://www.w3.org/2000/svg" viewBox="0 0 960 720" fill="none">
  <rect width="960" height="720" rx="48" fill="#071024"/>
  <rect x="66" y="66" width="828" height="588" rx="36" fill="#0B1328" stroke="url(#g1)" stroke-width="2"/>
  <circle cx="724" cy="166" r="130" fill="url(#g2)" opacity="0.45"/>
  <circle cx="226" cy="518" r="150" fill="url(#g3)" opacity="0.45"/>
  <rect x="138" y="144" width="320" height="22" rx="11" fill="#FFFFFF" opacity="0.92"/>
  <rect x="138" y="188" width="220" height="16" rx="8" fill="#94A3B8" opacity="0.7"/>
  <rect x="138" y="262" width="240" height="240" rx="28" fill="url(#g4)" opacity="0.9"/>
  <rect x="416" y="262" width="330" height="108" rx="24" fill="#0F172A" stroke="#1D4ED8" stroke-opacity="0.35"/>
  <rect x="416" y="392" width="330" height="110" rx="24" fill="#0F172A" stroke="#7C3AED" stroke-opacity="0.35"/>
  <rect x="416" y="522" width="330" height="72" rx="24" fill="#0F172A" stroke="#38BDF8" stroke-opacity="0.35"/>
  <rect x="170" y="302" width="170" height="16" rx="8" fill="#E2E8F0" opacity="0.9"/>
  <rect x="170" y="338" width="110" height="12" rx="6" fill="#94A3B8" opacity="0.75"/>
  <rect x="170" y="376" width="140" height="12" rx="6" fill="#94A3B8" opacity="0.75"/>
  <rect x="170" y="418" width="90" height="90" rx="20" fill="#38BDF8" fill-opacity="0.16" stroke="#38BDF8" stroke-opacity="0.4"/>
  <rect x="274" y="418" width="90" height="90" rx="20" fill="#A855F7" fill-opacity="0.16" stroke="#A855F7" stroke-opacity="0.4"/>
  <rect x="458" y="294" width="194" height="16" rx="8" fill="#E2E8F0" opacity="0.9"/>
  <rect x="458" y="326" width="130" height="12" rx="6" fill="#94A3B8" opacity="0.75"/>
  <rect x="458" y="426" width="166" height="16" rx="8" fill="#E2E8F0" opacity="0.9"/>
  <rect x="458" y="458" width="220" height="12" rx="6" fill="#94A3B8" opacity="0.75"/>
  <rect x="458" y="490" width="160" height="12" rx="6" fill="#94A3B8" opacity="0.75"/>
  <rect x="458" y="548" width="250" height="18" rx="9" fill="#E2E8F0" opacity="0.9"/>
  <rect x="458" y="578" width="190" height="10" rx="5" fill="#94A3B8" opacity="0.75"/>
  <defs>
    <linearGradient id="g1" x1="66" y1="66" x2="894" y2="654" gradientUnits="userSpaceOnUse">
      <stop stop-color="#38BDF8" stop-opacity="0.7"/>
      <stop offset="0.5" stop-color="#A855F7" stop-opacity="0.7"/>
      <stop offset="1" stop-color="#22D3EE" stop-opacity="0.7"/>
    </linearGradient>
    <radialGradient id="g2" cx="0" cy="0" r="1" gradientUnits="userSpaceOnUse" gradientTransform="translate(724 166) rotate(90) scale(130)">
      <stop stop-color="#38BDF8"/>
      <stop offset="1" stop-color="#38BDF8" stop-opacity="0"/>
    </radialGradient>
    <radialGradient id="g3" cx="0" cy="0" r="1" gradientUnits="userSpaceOnUse" gradientTransform="translate(226 518) rotate(90) scale(150)">
      <stop stop-color="#A855F7"/>
      <stop offset="1" stop-color="#A855F7" stop-opacity="0"/>
    </radialGradient>
    <linearGradient id="g4" x1="138" y1="262" x2="458" y2="502" gradientUnits="userSpaceOnUse">
      <stop stop-color="#38BDF8" stop-opacity="0.2"/>
      <stop offset="1" stop-color="#A855F7" stop-opacity="0.2"/>
    </linearGradient>
  </defs>
</svg>
